# xmcd
#
# Track frame offsets:
#	150
#	11327
#	25597
#	44773
#	56496
#	73388
#	90632
#	112120
#	126531
#	143936
#	158265
#	170674
#	189574
#	205799
#	226160
#	241132
#	254579
#	270299
#	284990
#	302554
#	316299
#	333314
#
# Disc length: 4679 seconds
#
# Revision: 0
# Processed by: cddbd v1.5.1PL2 Copyright (c) Steve Scherf et al.
# Submitted via: audiograbber 1.83.01
#
DISCID=40124516
DTITLE=Various Artist - Sertanejo Raizes By Miro 2
DYEAR=2006
DGENRE=Country
TTITLE0=Cezar and Paulinho - Meia Noite de Amor
TTITLE1=Chico Rei e Parana - Leao Domado
TTITLE2=Chitaozinho and Xororo - Estrada
TTITLE3=Chrystian and Ralf - O Futuro e uma Incerteza
TTITLE4=Matogrosso and Mathias - 24 Horas de Amor
TTITLE5=Ronaldo Viola and Praiano - Desatino
TTITLE6=Chrystian and Ralf - Olhos de Luar
TTITLE7=Jad and Jefferson - Escolta de vagalumes
TTITLE8=Milionario and Jose Rico - O Último Julgamento
TTITLE9=Chico Rei e Parana - Tranque a porta e me beija
TTITLE10=Teodoro and Sampaio - Amando escondido
TTITLE11=Cleiton e Camargo - Agenda Rabiscada
TTITLE12=Di Paulo and Paulino - Amor de primavera
TTITLE13=Zezé di Camargo e Luciano Part Esp Julio Iglesias - Dois amigos
TTITLE14=Guilherme and Santiago - Franguinho Na Panela
TTITLE15=Milionario and Jose Rico - Saudade de Minha Terra
TTITLE16=Joao Paulo and Daniel - A loira do carro branco
TTITLE17=Joao Renes and Reny - Ausencia
TTITLE18=Matogrosso and Mathias - De Igual Pra Igual
TTITLE19=Milionario and Jose Rico - Ponbinha Branca
TTITLE20=Rick and Rener - Nos bares da cidade
TTITLE21=Tonico and Tinoco - Cabocla Tereza
EXTD=
EXTT0=
EXTT1=
EXTT2=
EXTT3=
EXTT4=
EXTT5=
EXTT6=
EXTT7=
EXTT8=
EXTT9=
EXTT10=
EXTT11=
EXTT12=
EXTT13=
EXTT14=
EXTT15=
EXTT16=
EXTT17=
EXTT18=
EXTT19=
EXTT20=
EXTT21=
PLAYORDER=
